<mxfile host="Electron" agent="Mozilla/5.0 (Windows NT 10.0; Win64; x64) AppleWebKit/537.36 (KHTML, like Gecko) draw.io/27.0.9 Chrome/134.0.6998.205 Electron/35.4.0 Safari/537.36" version="27.0.9">
  <diagram name="Page-1" id="0lR5lccVPWlHvDiLA5b6">
    <mxGraphModel dx="1042" dy="626" grid="1" gridSize="10" guides="1" tooltips="1" connect="1" arrows="1" fold="1" page="1" pageScale="1" pageWidth="850" pageHeight="1100" math="0" shadow="0">
      <root>
        <mxCell id="0" />
        <mxCell id="1" parent="0" />
        <mxCell id="T7sTVs3wL5bNSKVHQYJn-2" value="&lt;b&gt;&lt;font style=&quot;font-size: 26px;&quot;&gt;High Level Architecture&lt;/font&gt;&lt;/b&gt;" style="text;html=1;align=center;verticalAlign=middle;resizable=0;points=[];autosize=1;strokeColor=none;fillColor=none;" parent="1" vertex="1">
          <mxGeometry x="30" y="20" width="310" height="40" as="geometry" />
        </mxCell>
        <mxCell id="T7sTVs3wL5bNSKVHQYJn-4" value="" style="rounded=0;whiteSpace=wrap;html=1;rotation=-90;fillColor=none;dashed=1;dashPattern=8 8;strokeColor=light-dark(#a2a0a0, #ededed);" parent="1" vertex="1">
          <mxGeometry x="-175.58" y="361.25" width="537.5" height="107.5" as="geometry" />
        </mxCell>
        <mxCell id="T7sTVs3wL5bNSKVHQYJn-5" value="Sources" style="rounded=0;whiteSpace=wrap;html=1;fontSize=20;strokeColor=none;" parent="1" vertex="1">
          <mxGeometry x="52.5" y="130" width="80" height="30" as="geometry" />
        </mxCell>
        <mxCell id="T7sTVs3wL5bNSKVHQYJn-7" value="" style="rounded=0;whiteSpace=wrap;html=1;dashed=1;dashPattern=8 8;fillColor=none;strokeColor=light-dark(#a8a4a4, #ededed);" parent="1" vertex="1">
          <mxGeometry x="190" y="142.5" width="470" height="537.5" as="geometry" />
        </mxCell>
        <mxCell id="T7sTVs3wL5bNSKVHQYJn-8" value="&amp;nbsp;Data Warehouse&amp;nbsp;" style="rounded=0;whiteSpace=wrap;html=1;fontSize=20;fillColor=default;strokeColor=none;" parent="1" vertex="1">
          <mxGeometry x="340" y="130" width="170" height="30" as="geometry" />
        </mxCell>
        <mxCell id="T7sTVs3wL5bNSKVHQYJn-9" value="" style="rounded=0;whiteSpace=wrap;html=1;rotation=-90;dashed=1;dashPattern=8 8;strokeColor=light-dark(#969292, #ededed);fillColor=none;" parent="1" vertex="1">
          <mxGeometry x="498.75" y="341.25" width="530.48" height="134.05" as="geometry" />
        </mxCell>
        <mxCell id="T7sTVs3wL5bNSKVHQYJn-10" value="Consume" style="rounded=0;whiteSpace=wrap;html=1;fontSize=20;strokeColor=none;" parent="1" vertex="1">
          <mxGeometry x="713.99" y="130" width="100" height="30" as="geometry" />
        </mxCell>
        <mxCell id="T7sTVs3wL5bNSKVHQYJn-12" value="Bronze Layer&amp;nbsp;" style="rounded=0;whiteSpace=wrap;html=1;fillColor=#ffe6cc;strokeColor=#d79b00;fontSize=20;" parent="1" vertex="1">
          <mxGeometry x="200" y="160" width="130" height="30" as="geometry" />
        </mxCell>
        <mxCell id="T7sTVs3wL5bNSKVHQYJn-13" value="Silver Layer&amp;nbsp;" style="rounded=0;whiteSpace=wrap;html=1;fillColor=#f5f5f5;strokeColor=#666666;fontSize=20;fontColor=#333333;" parent="1" vertex="1">
          <mxGeometry x="360" y="160" width="130" height="30" as="geometry" />
        </mxCell>
        <mxCell id="T7sTVs3wL5bNSKVHQYJn-14" value="Gold Layer&amp;nbsp;" style="rounded=0;whiteSpace=wrap;html=1;fillColor=#fff2cc;strokeColor=#d6b656;fontSize=20;" parent="1" vertex="1">
          <mxGeometry x="520" y="160" width="130" height="30" as="geometry" />
        </mxCell>
        <mxCell id="T7sTVs3wL5bNSKVHQYJn-15" value="" style="rounded=0;whiteSpace=wrap;html=1;fillColor=none;strokeColor=#d79b00;fontSize=20;" parent="1" vertex="1">
          <mxGeometry x="210" y="200" width="130" height="470" as="geometry" />
        </mxCell>
        <mxCell id="T7sTVs3wL5bNSKVHQYJn-16" value="" style="rounded=0;whiteSpace=wrap;html=1;fillColor=none;strokeColor=#666666;fontSize=20;fontColor=#333333;" parent="1" vertex="1">
          <mxGeometry x="360" y="200" width="130" height="470" as="geometry" />
        </mxCell>
        <mxCell id="T7sTVs3wL5bNSKVHQYJn-17" value="" style="rounded=0;whiteSpace=wrap;html=1;fillColor=none;strokeColor=light-dark(#e2a508, #996500);fontSize=20;" parent="1" vertex="1">
          <mxGeometry x="520" y="200" width="130" height="470" as="geometry" />
        </mxCell>
        <mxCell id="T7sTVs3wL5bNSKVHQYJn-18" value="&lt;b&gt;CRM&lt;/b&gt;" style="image;aspect=fixed;html=1;points=[];align=center;fontSize=12;image=img/lib/azure2/general/Folder_Blank.svg;" parent="1" vertex="1">
          <mxGeometry x="73.42999999999998" y="220" width="36.96" height="30" as="geometry" />
        </mxCell>
        <mxCell id="T7sTVs3wL5bNSKVHQYJn-19" value="" style="image;aspect=fixed;html=1;points=[];align=center;fontSize=12;image=img/lib/azure2/general/File.svg;" parent="1" vertex="1">
          <mxGeometry x="100.00000000000001" y="240" width="16.23" height="20" as="geometry" />
        </mxCell>
        <mxCell id="T7sTVs3wL5bNSKVHQYJn-21" value="&lt;b&gt;ERP&lt;/b&gt;" style="image;aspect=fixed;html=1;points=[];align=center;fontSize=12;image=img/lib/azure2/general/Folder_Blank.svg;" parent="1" vertex="1">
          <mxGeometry x="73.42999999999998" y="306.25" width="36.96" height="30" as="geometry" />
        </mxCell>
        <mxCell id="T7sTVs3wL5bNSKVHQYJn-24" value="" style="image;aspect=fixed;html=1;points=[];align=center;fontSize=12;image=img/lib/azure2/general/File.svg;" parent="1" vertex="1">
          <mxGeometry x="100" y="320" width="16.23" height="20" as="geometry" />
        </mxCell>
        <mxCell id="T7sTVs3wL5bNSKVHQYJn-28" value="" style="line;strokeWidth=2;html=1;strokeColor=light-dark(#9b9797, #ededed);" parent="1" vertex="1">
          <mxGeometry x="51.91" y="352.5" width="80" height="30" as="geometry" />
        </mxCell>
        <mxCell id="T7sTVs3wL5bNSKVHQYJn-31" value="" style="html=1;verticalLabelPosition=bottom;align=center;labelBackgroundColor=#ffffff;verticalAlign=top;strokeWidth=2;strokeColor=#d79b00;shadow=0;dashed=0;shape=mxgraph.ios7.icons.data;fillColor=#ffe6cc;" parent="1" vertex="1">
          <mxGeometry x="250" y="249.99999999999997" width="50" height="52.85" as="geometry" />
        </mxCell>
        <mxCell id="T7sTVs3wL5bNSKVHQYJn-32" value="" style="html=1;verticalLabelPosition=bottom;align=center;labelBackgroundColor=#ffffff;verticalAlign=top;strokeWidth=2;strokeColor=#666666;shadow=0;dashed=0;shape=mxgraph.ios7.icons.data;fillColor=#f5f5f5;fontColor=#333333;" parent="1" vertex="1">
          <mxGeometry x="400" y="250" width="50" height="52.85" as="geometry" />
        </mxCell>
        <mxCell id="T7sTVs3wL5bNSKVHQYJn-33" value="" style="html=1;verticalLabelPosition=bottom;align=center;labelBackgroundColor=#ffffff;verticalAlign=top;strokeWidth=2;strokeColor=#d6b656;shadow=0;dashed=0;shape=mxgraph.ios7.icons.data;fillColor=#fff2cc;" parent="1" vertex="1">
          <mxGeometry x="560" y="250" width="50" height="52.85" as="geometry" />
        </mxCell>
        <mxCell id="T7sTVs3wL5bNSKVHQYJn-34" value="" style="shape=singleArrow;whiteSpace=wrap;html=1;fillColor=#dae8fc;strokeColor=#6c8ebf;" parent="1" vertex="1">
          <mxGeometry x="140" y="272.5" width="60" height="40" as="geometry" />
        </mxCell>
        <mxCell id="T7sTVs3wL5bNSKVHQYJn-35" value="" style="shape=singleArrow;whiteSpace=wrap;html=1;fillColor=#dae8fc;strokeColor=#6c8ebf;" parent="1" vertex="1">
          <mxGeometry x="320" y="262.85" width="50" height="40" as="geometry" />
        </mxCell>
        <mxCell id="T7sTVs3wL5bNSKVHQYJn-36" style="edgeStyle=orthogonalEdgeStyle;rounded=0;orthogonalLoop=1;jettySize=auto;html=1;exitX=0.5;exitY=1;exitDx=0;exitDy=0;" parent="1" source="T7sTVs3wL5bNSKVHQYJn-14" target="T7sTVs3wL5bNSKVHQYJn-14" edge="1">
          <mxGeometry relative="1" as="geometry" />
        </mxCell>
        <mxCell id="T7sTVs3wL5bNSKVHQYJn-37" value="" style="shape=singleArrow;whiteSpace=wrap;html=1;fillColor=#dae8fc;strokeColor=#6c8ebf;" parent="1" vertex="1">
          <mxGeometry x="470" y="266.25" width="60" height="40" as="geometry" />
        </mxCell>
        <mxCell id="T7sTVs3wL5bNSKVHQYJn-38" value="" style="shape=singleArrow;whiteSpace=wrap;html=1;fillColor=#dae8fc;strokeColor=#6c8ebf;" parent="1" vertex="1">
          <mxGeometry x="650" y="262.85" width="60" height="40" as="geometry" />
        </mxCell>
        <mxCell id="T7sTVs3wL5bNSKVHQYJn-39" value="Raw Data" style="text;html=1;align=center;verticalAlign=middle;whiteSpace=wrap;rounded=0;" parent="1" vertex="1">
          <mxGeometry x="240" y="302.85" width="60" height="30" as="geometry" />
        </mxCell>
        <mxCell id="T7sTVs3wL5bNSKVHQYJn-40" value="&lt;font style=&quot;font-size: 10px;&quot;&gt;&lt;b&gt;Object Type&lt;/b&gt; : CSV Files&lt;/font&gt;&lt;div&gt;&lt;span style=&quot;font-size: 10px;&quot;&gt;&lt;br&gt;&lt;/span&gt;&lt;div&gt;&lt;div&gt;&lt;font style=&quot;font-size: 10px;&quot;&gt;&lt;b&gt;Interface&lt;/b&gt;: Files in folder&lt;/font&gt;&lt;/div&gt;&lt;div&gt;&lt;br&gt;&lt;/div&gt;&lt;/div&gt;&lt;/div&gt;" style="text;html=1;align=center;verticalAlign=middle;whiteSpace=wrap;rounded=0;fillColor=default;" parent="1" vertex="1">
          <mxGeometry x="32.5" y="400" width="120" height="40" as="geometry" />
        </mxCell>
        <mxCell id="T7sTVs3wL5bNSKVHQYJn-41" value="Business-Ready Data" style="text;html=1;align=center;verticalAlign=middle;whiteSpace=wrap;rounded=0;" parent="1" vertex="1">
          <mxGeometry x="540" y="306.25" width="90" height="30" as="geometry" />
        </mxCell>
        <mxCell id="T7sTVs3wL5bNSKVHQYJn-43" value="Cleaned Standard Data&lt;div&gt;&lt;br&gt;&lt;/div&gt;" style="text;html=1;align=center;verticalAlign=middle;whiteSpace=wrap;rounded=0;" parent="1" vertex="1">
          <mxGeometry x="370" y="320" width="110" height="20" as="geometry" />
        </mxCell>
        <mxCell id="T7sTVs3wL5bNSKVHQYJn-45" value="" style="line;strokeWidth=2;html=1;strokeColor=#d79b00;fillColor=#ffe6cc;" parent="1" vertex="1">
          <mxGeometry x="225" y="340" width="105" height="30" as="geometry" />
        </mxCell>
        <mxCell id="T7sTVs3wL5bNSKVHQYJn-47" value="" style="line;strokeWidth=2;html=1;fillColor=#d0cee2;strokeColor=#56517e;" parent="1" vertex="1">
          <mxGeometry x="370" y="340" width="105" height="30" as="geometry" />
        </mxCell>
        <mxCell id="T7sTVs3wL5bNSKVHQYJn-48" value="" style="line;strokeWidth=2;html=1;strokeColor=#d6b656;fillColor=#fff2cc;" parent="1" vertex="1">
          <mxGeometry x="530" y="337.5" width="100" height="30" as="geometry" />
        </mxCell>
        <mxCell id="T7sTVs3wL5bNSKVHQYJn-52" value="&lt;b&gt;Object Type : &lt;/b&gt;Table&lt;div&gt;&lt;br&gt;&lt;div&gt;&lt;b style=&quot;color: light-dark(rgb(0, 0, 0), rgb(255, 255, 255)); background-color: transparent;&quot;&gt;Load :&lt;/b&gt;&lt;div&gt;&lt;ul&gt;&lt;li&gt;&lt;span style=&quot;background-color: transparent; color: light-dark(rgb(0, 0, 0), rgb(255, 255, 255));&quot;&gt;Batch Processing&amp;nbsp;&lt;/span&gt;&lt;/li&gt;&lt;li&gt;&lt;span style=&quot;background-color: transparent; color: light-dark(rgb(0, 0, 0), rgb(255, 255, 255));&quot;&gt;Full Load&lt;/span&gt;&lt;/li&gt;&lt;li&gt;&lt;span style=&quot;background-color: transparent; color: light-dark(rgb(0, 0, 0), rgb(255, 255, 255));&quot;&gt;Trunc &amp;amp; Insert&lt;/span&gt;&lt;/li&gt;&lt;/ul&gt;&lt;/div&gt;&lt;div&gt;&lt;b&gt;No Transformations&lt;/b&gt;&lt;/div&gt;&lt;/div&gt;&lt;div&gt;&lt;b&gt;&lt;br&gt;&lt;/b&gt;&lt;/div&gt;&lt;div&gt;&lt;b&gt;Data Mode: &lt;/b&gt;None(As-is)&lt;/div&gt;&lt;/div&gt;" style="text;html=1;align=left;verticalAlign=middle;whiteSpace=wrap;rounded=0;" parent="1" vertex="1">
          <mxGeometry x="212.5" y="361" width="130" height="190.5" as="geometry" />
        </mxCell>
        <mxCell id="T7sTVs3wL5bNSKVHQYJn-55" value="&lt;b&gt;Object Type : &lt;/b&gt;Tables&lt;div&gt;&lt;b style=&quot;color: light-dark(rgb(0, 0, 0), rgb(255, 255, 255)); background-color: transparent;&quot;&gt;Load :&lt;/b&gt;&lt;div&gt;&lt;ul&gt;&lt;li&gt;&lt;span style=&quot;background-color: transparent; color: light-dark(rgb(0, 0, 0), rgb(255, 255, 255));&quot;&gt;Batch Processing&amp;nbsp;&lt;/span&gt;&lt;/li&gt;&lt;li&gt;&lt;span style=&quot;background-color: transparent; color: light-dark(rgb(0, 0, 0), rgb(255, 255, 255));&quot;&gt;Full Load&lt;/span&gt;&lt;/li&gt;&lt;li&gt;&lt;span style=&quot;background-color: transparent; color: light-dark(rgb(0, 0, 0), rgb(255, 255, 255));&quot;&gt;Trunc &amp;amp; Insert&lt;/span&gt;&lt;/li&gt;&lt;/ul&gt;&lt;/div&gt;&lt;div&gt;&lt;b&gt;Transformations&lt;/b&gt;&lt;/div&gt;&lt;/div&gt;&lt;div&gt;&lt;ul&gt;&lt;li&gt;Data Cleaning&lt;/li&gt;&lt;li&gt;Data Standardization&lt;/li&gt;&lt;li&gt;Data Normalization&lt;/li&gt;&lt;li&gt;Derived Columns&lt;/li&gt;&lt;li&gt;Data Enrichment&lt;/li&gt;&lt;/ul&gt;&lt;/div&gt;&lt;div&gt;&lt;b&gt;Data Mode: &lt;/b&gt;None(As-is)&lt;/div&gt;" style="text;html=1;align=left;verticalAlign=middle;whiteSpace=wrap;rounded=0;" parent="1" vertex="1">
          <mxGeometry x="357.5" y="352.5" width="130" height="320" as="geometry" />
        </mxCell>
        <mxCell id="T7sTVs3wL5bNSKVHQYJn-56" value="&lt;b&gt;Object Type :&lt;/b&gt; Views&lt;div&gt;&lt;br&gt;&lt;div&gt;&lt;b style=&quot;color: light-dark(rgb(0, 0, 0), rgb(255, 255, 255)); background-color: transparent;&quot;&gt;No Load&lt;/b&gt;&lt;/div&gt;&lt;div&gt;&lt;b style=&quot;color: light-dark(rgb(0, 0, 0), rgb(255, 255, 255)); background-color: transparent;&quot;&gt;&amp;nbsp;&lt;/b&gt;&lt;/div&gt;&lt;div&gt;&lt;div&gt;&lt;b&gt;Transformations:&lt;/b&gt;&lt;/div&gt;&lt;/div&gt;&lt;div&gt;&lt;ul&gt;&lt;li&gt;Data Integrations&lt;/li&gt;&lt;li&gt;Aggregations&lt;/li&gt;&lt;li&gt;Business Logics&lt;/li&gt;&lt;/ul&gt;&lt;/div&gt;&lt;div&gt;&lt;b&gt;Data Mode:&amp;nbsp;&lt;/b&gt;&lt;/div&gt;&lt;div&gt;&lt;ul&gt;&lt;li&gt;Star Schema&lt;/li&gt;&lt;li&gt;Flat Table&lt;/li&gt;&lt;li&gt;Aggregated Table&lt;/li&gt;&lt;/ul&gt;&lt;/div&gt;&lt;/div&gt;" style="text;html=1;align=left;verticalAlign=middle;whiteSpace=wrap;rounded=0;" parent="1" vertex="1">
          <mxGeometry x="520" y="370" width="130" height="240" as="geometry" />
        </mxCell>
        <mxCell id="T7sTVs3wL5bNSKVHQYJn-57" value="" style="image;aspect=fixed;html=1;points=[];align=center;fontSize=12;image=img/lib/azure2/analytics/Power_BI_Embedded.svg;" parent="1" vertex="1">
          <mxGeometry x="729.51" y="228.75" width="37.5" height="50" as="geometry" />
        </mxCell>
        <mxCell id="ajWItLwPPVYPf0Rie--K-1" value="" style="verticalLabelPosition=bottom;aspect=fixed;html=1;shape=mxgraph.salesforce.analytics;" vertex="1" parent="1">
          <mxGeometry x="780" y="231.25" width="48.47" height="47.5" as="geometry" />
        </mxCell>
        <mxCell id="ajWItLwPPVYPf0Rie--K-2" value="&lt;b&gt;Bi and Reporting&lt;/b&gt;" style="text;html=1;align=center;verticalAlign=middle;whiteSpace=wrap;rounded=0;" vertex="1" parent="1">
          <mxGeometry x="717.04" y="280" width="110" height="30" as="geometry" />
        </mxCell>
        <mxCell id="ajWItLwPPVYPf0Rie--K-3" value="" style="image;aspect=fixed;html=1;points=[];align=center;fontSize=12;image=img/lib/azure2/ai_machine_learning/Anomaly_Detector.svg;" vertex="1" parent="1">
          <mxGeometry x="740.51" y="361.25" width="53.05" height="53.05" as="geometry" />
        </mxCell>
        <mxCell id="ajWItLwPPVYPf0Rie--K-4" value="" style="points=[];aspect=fixed;html=1;align=center;shadow=0;dashed=0;fillColor=#FF6A00;strokeColor=none;shape=mxgraph.alibaba_cloud.machine_learning;" vertex="1" parent="1">
          <mxGeometry x="743.76" y="501.4" width="49.8" height="50.099999999999994" as="geometry" />
        </mxCell>
        <mxCell id="ajWItLwPPVYPf0Rie--K-5" value="Ad-Hoc&amp;nbsp;&lt;div&gt;SQL Query&lt;/div&gt;" style="text;html=1;align=center;verticalAlign=middle;whiteSpace=wrap;rounded=0;fontStyle=1" vertex="1" parent="1">
          <mxGeometry x="723.37" y="430" width="81.25" height="30" as="geometry" />
        </mxCell>
        <mxCell id="ajWItLwPPVYPf0Rie--K-6" value="&lt;b&gt;Machine Learning&lt;/b&gt;" style="text;html=1;align=center;verticalAlign=middle;whiteSpace=wrap;rounded=0;" vertex="1" parent="1">
          <mxGeometry x="710" y="560" width="110" height="30" as="geometry" />
        </mxCell>
      </root>
    </mxGraphModel>
  </diagram>
</mxfile>
